<?xml version="1.0" encoding="UTF-8" standalone="no"?>
<!DOCTYPE svg PUBLIC "-//W3C//DTD SVG 1.1//EN" "http://www.w3.org/Graphics/SVG/1.1/DTD/svg11.dtd">
<svg width="100%" height="100%" viewBox="0 0 280 158" version="1.1" xmlns="http://www.w3.org/2000/svg" xmlns:xlink="http://www.w3.org/1999/xlink" xml:space="preserve" xmlns:serif="http://www.serif.com/" style="fill-rule:evenodd;clip-rule:evenodd;stroke-linejoin:round;stroke-miterlimit:2;">
    <g id="Layer-1" serif:id="Layer 1" transform="matrix(1.366949,0,0,1.366949,-0.070539,-61.25517)">
        <g id="g1" transform="matrix(1,0,0,1,-0.741035,12.043949)">
            <path id="path2" d="M37.329,144.8C34.633,144.337 32.646,142.821 32.648,141.227L32.648,140.662L33.749,137.92C34.355,136.412 34.851,135.125 34.851,135.06C34.851,134.995 33.658,134.941 32.2,134.94C21.491,134.931 10.266,131.809 1.835,126.495L0.836,125.866L0.84,60.675L1.286,60.842C1.532,60.934 2.507,61.44 3.454,61.966C12.296,66.876 17.013,69.108 25.142,72.227C32.445,75.029 42.363,78.083 46.418,78.779C50.626,79.502 51.632,79.815 53.687,81.043C55.151,81.918 56.456,83.136 57.23,84.349C57.521,84.805 57.823,85.156 57.901,85.128C58.217,85.014 63.204,72.596 67.299,61.724C69.79,55.11 70.43,53.458 71.067,52L71.377,51.289L71.967,50.916C76.617,47.976 86.44,46.907 95.648,48.339C101.575,49.261 105.27,50.346 113.687,53.636C129.168,59.687 135.431,60.973 147.78,60.636C162.696,60.229 175.098,56.765 192.864,48.043C196.197,46.407 196.792,46.33 196.792,47.536C196.792,48.548 195.444,51.871 192.978,56.937L191.71,59.54L191.876,59.635C191.967,59.687 193.774,59.776 195.891,59.833C200.247,59.951 200.504,60.014 200.507,60.955C200.512,62.572 189.824,73.251 183.848,77.6C171.755,86.401 156.878,90.822 139.369,90.816C127.77,90.813 119.379,89.542 103.566,85.393C97.889,83.904 96.925,83.67 93.789,83.015C88.472,81.905 85.365,81.496 81.257,81.367L78.434,81.278L75.991,81.516C73.405,81.767 69.74,82.415 67.717,82.977L66.502,83.315L65.68,85.395C65.228,86.539 64.612,88.076 64.311,88.812C63.639,90.455 63.606,90.201 64.64,91.302C66.162,92.92 67.046,94.956 67.176,97.141L67.247,98.338L67.012,99.592C66.873,100.335 66.544,101.361 66.205,102.109L65.634,103.372L64.66,104.44L63.686,105.508L62.53,106.111C61.894,106.443 61.246,106.715 61.091,106.717C60.935,106.718 60.731,106.772 60.636,106.837L60.464,106.955L61.051,109.461L60.969,110.799C60.868,112.432 60.594,113.579 59.962,115.006L59.482,116.091L58.63,117.016C57.675,118.053 56.393,118.853 55.467,118.99C55.127,119.04 54.783,119.126 54.701,119.18L54.552,119.28L54.752,120.091C55.198,121.899 54.946,123.977 54.032,126.028L53.535,127.142L52.696,128.044C51.229,129.621 49.92,130.09 47.204,130.012L45.581,129.965L44.986,131.451C39.775,144.474 39.835,144.337 39.207,144.589C38.8,144.752 37.744,144.871 37.329,144.8L37.329,144.8Z" style="fill:rgb(107,232,24);fill-rule:nonzero;"/>
            <path id="path1" d="M36.112,144.376C34.152,143.641 33.229,142.932 32.855,141.874L32.631,141.243L32.861,140.507C32.988,140.102 33.52,138.74 34.043,137.479C34.567,136.219 34.978,135.134 34.957,135.067C34.937,135 33.432,134.915 31.615,134.876C23.311,134.702 17.292,133.437 9.513,130.233C7.358,129.345 2.49,126.861 2.49,126.649C2.49,126.577 2.248,126.401 1.953,126.258L1.417,125.997L1.34,125.585C1.298,125.358 1.158,125.058 1.028,124.918L0.793,124.664L1.182,124.398L0.837,124.394L0.837,122.311L1.354,122.653C8.347,127.295 21.09,131.578 29.721,132.189L30.995,132.279L30.995,132.08C30.995,131.971 30.623,131.598 30.168,131.252C26.854,128.73 25.326,122.722 25.89,114.43C26.913,99.408 32.294,86.777 40.141,80.978L41.373,80.068L41.107,79.951C40.96,79.887 39.323,79.426 37.467,78.928C28.685,76.568 18.13,72.557 10.553,68.698C8.202,67.501 4.426,65.303 1.379,63.359L0.837,63.013L0.837,61.91C0.837,61.303 0.891,60.807 0.957,60.807C1.023,60.807 3.021,61.87 5.398,63.17C18.54,70.357 36.717,77.296 46.693,78.935C52.184,79.836 55.124,81.375 57.118,84.39C57.457,84.902 57.81,85.321 57.904,85.321C58.207,85.321 63.326,72.622 67.487,61.55C69.902,55.123 71.007,52.284 71.318,51.709C71.949,50.541 77.276,48.634 81.464,48.078L83.254,47.84L87.248,47.84L91.241,47.84L93.169,48.086C100.154,48.977 105.139,50.352 113.687,53.746C124.016,57.846 129.975,59.568 136.615,60.37L139.163,60.677L142.95,60.76C154.94,61.021 166.658,58.991 178.303,54.636C182.875,52.926 186.311,51.401 192.985,48.117C194.412,47.415 195.724,46.801 195.899,46.754L196.218,46.667L196.502,46.974L196.787,47.281L196.705,47.767C196.493,49.026 194.679,53.331 192.684,57.313C192.07,58.537 191.619,59.594 191.681,59.66C191.743,59.727 193.605,59.84 195.818,59.91L199.843,60.039L200.108,60.297C200.763,60.937 200.497,61.439 197.998,64.277C188.168,75.442 178.097,82.533 166.549,86.419C156.963,89.646 147.643,91.015 137.038,90.755C126.519,90.497 117.447,89.006 103.221,85.197C96.29,83.341 91.796,82.369 87.248,81.741L85.044,81.437L77.195,81.28L75.1,81.512C73.022,81.743 69.271,82.427 67.419,82.913L66.455,83.166L65.049,86.658C63.376,90.811 63.445,90.226 64.503,91.324C68.984,95.976 67.329,104.32 61.501,106.45L60.395,106.854L60.412,107.119C60.421,107.264 60.534,107.784 60.663,108.274C60.803,108.806 60.896,109.676 60.894,110.428L60.89,111.691L60.531,113.024C59.656,116.272 57.565,118.59 55.158,118.98C54.388,119.104 54.373,119.132 54.618,120.009C54.731,120.416 54.818,121.33 54.818,122.119L54.818,123.512L54.531,124.436C53.521,127.684 51.648,129.509 48.915,129.906L47.772,130.072L46.726,129.904C45.382,129.688 45.992,128.629 42.663,136.948C41.715,139.317 40.659,141.902 40.318,142.692L39.698,144.127L38.935,144.666L37.123,144.755L36.112,144.376ZM37.647,141.362C37.769,141.216 38.358,139.963 38.956,138.577C39.553,137.191 41.141,133.557 42.485,130.501L44.928,124.946L44.66,124.559C44.217,123.918 44.023,124.001 43.423,125.093C42.375,126.998 35.815,140.665 35.815,140.942C35.815,141.443 37.294,141.783 37.647,141.362ZM36.372,130.676C37.788,129.995 39.469,128.113 41.299,125.163L42.342,123.482L42.197,123.232C42.039,122.959 41.469,122.837 40.977,122.97C40.782,123.022 40.311,123.599 39.724,124.504C38.557,126.305 36.777,128.251 35.817,128.775L35.096,129.169L33.601,129.169L32.952,128.831C31.012,127.822 29.715,125.045 29.256,120.919L29.039,118.971L29.117,116.223C29.545,101.207 36.303,86 43.789,83.208L44.697,82.869L47.726,82.874L48.759,83.154C50.733,83.688 52.379,84.721 53.613,86.203C54.283,87.006 55.421,89.31 55.346,89.712L55.3,89.956L54.071,90.299C51.064,91.138 47.235,94.098 46.075,96.481L45.592,97.472L45.592,98.715L45.984,99.138C46.2,99.371 46.59,99.605 46.851,99.657L47.326,99.753L48.708,99.159C53.418,97.135 57.109,98.447 57.423,102.257L57.503,103.223L58.834,103.935L60.67,103.945L61.359,103.559C63.066,102.604 64.367,100.325 64.653,97.789L64.746,96.961L64.544,95.914C64.17,93.981 62.913,92.058 61.491,91.244C60.699,90.791 60.695,90.824 61.918,88.052C62.491,86.754 63.185,85.174 63.46,84.541L63.962,83.389L63.819,83.235C63.603,83.002 62.546,83.236 62.183,83.597C62.01,83.769 61.559,84.645 61.181,85.544C59.104,90.484 59.256,90.266 58,90.11L57.119,90.001L57.016,89.778C56.96,89.655 56.807,89.154 56.677,88.663C55.779,85.274 53.255,82.735 49.516,81.458L48.552,81.129L45.215,80.974L44.159,81.227C35.393,83.331 27.967,100.334 27.966,118.303C27.966,125.301 29.52,129.422 32.669,130.769L33.405,131.084L35.758,130.972L36.372,130.676ZM58.664,102.666C58.658,102.564 58.662,102.003 58.672,101.42C58.719,98.774 56.7,96.824 53.166,96.101L52.07,95.876L51,96.022C50.411,96.103 49.527,96.301 49.034,96.463C47.591,96.939 47.545,96.74 48.806,95.467C53.701,90.527 60.291,90.355 62.424,95.11L62.864,96.092L62.867,98.469L62.404,99.542L61.942,100.614L61.073,101.514C59.989,102.637 58.696,103.255 58.664,102.666L58.664,102.666ZM49.83,126.982C50.739,126.494 51.686,125.359 52.088,124.275L52.403,123.428L52.408,119.565L52.039,118.716C51.606,117.719 50.562,116.46 49.839,116.062C49.167,115.692 49.105,115.552 49.451,115.179C49.782,114.822 49.763,114.392 49.413,114.319L49.174,114.27L48.884,114.8L48.595,115.33L48.023,115.237C47.185,115.102 47.154,115.012 47.565,113.884C48.108,112.39 48.052,112.211 47.048,112.211C46.493,112.211 46.248,112.5 45.943,113.508C45.814,113.936 45.605,114.412 45.478,114.566L45.247,114.847L44.215,115.032C40.735,115.658 36.916,118.681 36.916,120.809L36.916,121.248L37.797,122.047L38.699,121.974C39.195,121.934 40.082,121.787 40.67,121.648L41.738,121.394L42.732,121.72C44.759,122.384 45.712,123.197 46.137,124.628C46.401,125.512 46.606,125.595 46.964,124.962C47.936,123.242 46.088,120.744 43.132,119.782L42.119,119.452L40.826,119.525C40.114,119.565 39.533,119.548 39.533,119.486C39.533,118.93 42.049,117.485 43.932,116.958L45.096,116.633L47.068,116.77L47.965,117.222C49.131,117.811 49.899,118.574 50.369,119.611L50.748,120.446L50.744,122.537L50.393,123.354C49.709,124.947 48.808,125.698 47.382,125.865L46.624,125.954L46.584,126.259C46.507,126.836 47.373,127.333 48.491,127.354L49.118,127.365L49.83,126.982ZM55.289,116.129L55.947,115.887L56.827,115L57.707,114.112L58.578,112.201L58.71,109.247L58.395,108.187C58.033,106.975 57.271,105.779 56.199,104.739L55.464,104.027L55.76,103.386C56.135,102.577 56.133,102.332 55.751,102.043C55.275,101.683 55.139,101.755 54.72,102.592L54.329,103.372L53.713,103.328C52.81,103.263 52.778,103.153 53.276,101.839C53.872,100.265 53.797,100.062 52.67,100.203L52.279,100.252L51.965,100.757C51.792,101.035 51.582,101.536 51.5,101.871C51.417,102.206 51.253,102.597 51.135,102.74L50.919,103L50.33,103C46.874,103 41.473,106.821 40.988,109.608L40.897,110.132L41.128,110.658C41.583,111.693 42.303,111.822 44.408,111.246C45.232,111.02 46.152,110.874 46.753,110.874L47.741,110.874L48.567,111.175C50.095,111.732 50.809,112.643 50.951,114.217L51.031,115.108L51.926,115.587C53.397,116.373 54.251,116.511 55.289,116.129L55.289,116.129ZM52.292,114.936L52.038,114.858L52.128,114.538C52.177,114.361 52.252,113.81 52.295,113.313L52.373,112.408L52.12,111.827C51.981,111.507 51.555,110.908 51.174,110.495L50.48,109.745L49.578,109.356C47.858,108.616 45.641,108.474 44.223,109.014C43.482,109.296 43.332,109.173 43.625,108.521C44.439,106.707 48.564,104.642 51.444,104.605L52.683,104.589L53.716,105.112C55.152,105.84 55.808,106.505 56.43,107.862L56.949,108.994L56.949,111.269L56.48,112.265C55.598,114.14 53.683,115.361 52.292,114.936L52.292,114.936ZM147.976,87.184C164.612,85.185 176.397,80.312 187.833,70.702C191.215,67.86 196.756,62.442 196.586,62.144C196.55,62.082 195.111,61.986 193.387,61.929C189.542,61.803 187.566,61.517 187.566,61.089C187.566,61.011 188.209,59.894 188.995,58.607C190.386,56.327 193.212,51.211 193.212,50.972C193.212,50.707 192.713,50.897 191.041,51.801C172.785,61.667 148.744,65.514 130.212,61.533C124.639,60.336 119.972,58.853 111.346,55.536C102.031,51.955 96.501,50.549 89.909,50.087L87.338,49.906L84.745,50.08C80.172,50.387 76.94,51.188 74.089,52.72C72.814,53.405 73.085,52.816 70.1,61.401C67.578,68.656 65.055,75.616 62.976,81.051C62.695,81.784 62.802,81.859 63.567,81.471C72.989,76.693 83.974,76.89 104.874,82.212C119.114,85.838 122.947,86.503 135.1,87.456C135.517,87.488 138.15,87.493 140.953,87.466L146.048,87.416L147.976,87.184ZM134.136,85.458C126.052,84.837 119.815,83.916 113.481,82.409C109.703,81.51 107.01,80.837 106.113,80.569C97.854,78.095 86.615,76.258 79.707,76.254L76.022,76.251L74.13,76.484C73.089,76.612 71.866,76.812 71.411,76.929C70.957,77.045 70.151,77.243 69.621,77.368C69.091,77.493 68.022,77.807 67.246,78.066C65.731,78.571 65.612,78.567 65.825,78.023C66.181,77.112 68.196,71.53 69.277,68.458C70.375,65.338 73.767,55.786 74.114,54.838C74.485,53.822 77.216,52.735 81.039,52.08L82.566,51.819L91.516,51.841L93.857,52.171C97.194,52.641 100.065,53.346 104.598,54.81C106.504,55.425 108.356,56.107 114.444,58.432C126.841,63.166 136.569,65.024 147.632,64.771C161.657,64.45 175.165,61.227 187.556,55.244C188.497,54.79 189.287,54.418 189.312,54.418C189.542,54.418 189.081,55.286 187.488,57.85L185.62,60.858L185.708,61.241C185.756,61.452 185.991,61.843 186.23,62.111L186.664,62.598L187.516,62.882C188.455,63.195 190.79,63.513 191.889,63.478C192.276,63.466 192.65,63.461 192.721,63.468C193.486,63.543 185.88,70.228 181.094,73.688C172.658,79.787 161.165,83.872 148.527,85.264L146.323,85.507L141.091,85.549C138.212,85.572 135.083,85.531 134.136,85.458L134.136,85.458ZM146.01,81.398C146.292,81.251 146.803,80.864 147.146,80.539L147.769,79.947L147.769,78.918L147.405,78.554L147.04,78.189L145.91,78.194L145.222,78.635L144.533,79.076L143.97,79.078C142.232,79.086 140.267,76.342 139.929,73.435L139.808,72.393L139.991,71.643C140.287,70.434 141.134,69.476 142.131,69.224L142.484,69.135L143.365,69.585C144.631,70.231 145.428,69.874 145.428,68.663L145.428,68.107L145.042,67.81C144.829,67.646 144.394,67.4 144.076,67.263L143.497,67.013L140.677,67.13L139.942,67.565C139.056,68.089 137.919,69.39 137.544,70.311L137.27,70.984L137.199,72.435C136.983,76.89 138.785,80.052 142.395,81.549L142.881,81.751L145.497,81.665L146.01,81.398ZM154.654,80.179C155.223,80.059 156.47,79.802 157.426,79.608C160.184,79.049 161.244,77.972 159.943,77.052L159.607,76.815L158.956,76.898C158.597,76.944 157.467,77.157 156.445,77.372C155.422,77.587 154.214,77.775 153.759,77.79L152.933,77.818L152.692,76.778C152.251,74.877 151.773,72.198 151.484,70.018L151.199,67.864L150.708,67.364L150.217,66.864L148.686,67.001L148.349,67.425L148.011,67.848L148.091,68.673C148.201,69.806 148.787,72.9 149.413,75.664C149.701,76.93 150.009,78.334 150.098,78.784C150.273,79.67 150.409,79.919 150.936,80.325L151.281,80.59L152.451,80.493C153.095,80.441 154.086,80.299 154.654,80.179L154.654,80.179ZM126.744,79.205C127.745,78.629 127.631,77.733 126.242,75.272C125.833,74.548 125.267,73.42 124.984,72.767C124.7,72.113 124.25,71.256 123.982,70.863L123.496,70.147L123.682,69.772C123.784,69.566 124.238,69.052 124.689,68.631C126.469,66.969 127.043,65.674 126.337,64.913C125.613,64.132 124.992,64.407 122.579,66.581C121.569,67.491 120.673,68.235 120.589,68.235L120.435,68.235L120.435,63.555L120.187,63.066C119.853,62.406 119.193,61.997 118.462,61.996L117.866,61.995L117.031,62.896L117.13,63.226C117.826,65.55 117.118,72.726 115.943,75.252C115.649,75.883 115.408,76.542 115.408,76.715C115.408,77.087 116.245,78.041 116.571,78.041C117.709,78.041 119.482,75.733 119.937,73.658C120.026,73.249 120.167,72.731 120.249,72.507L120.399,72.098L120.784,72.098C121.478,72.098 121.588,72.253 122.298,74.229C123.964,78.868 125.106,80.146 126.744,79.205L126.744,79.205ZM167.392,77.275C168.437,76.852 169.305,76.091 169.681,75.268L170.009,74.549L169.989,73.138C169.955,70.693 168.74,65.043 168.128,64.484C167.95,64.321 167.614,64.224 167.229,64.224L166.614,64.224L166.207,64.663L165.8,65.102L165.885,65.517C165.932,65.746 166.116,66.501 166.293,67.195C166.944,69.742 167.599,72.89 167.599,73.475L167.599,74.076L167.257,74.559C167.067,74.828 166.647,75.153 166.311,75.292L165.707,75.541L165.155,75.237C164.097,74.655 163.637,73.643 162.779,70.018C162.615,69.324 162.298,68.14 162.075,67.388L161.669,66.021L160.952,65.412L159.771,65.412L159.347,65.797C158.836,66.261 158.824,66.519 159.255,67.864C159.439,68.436 159.911,70.007 160.304,71.355C161.662,76.003 162.501,77.187 164.709,77.57C165.643,77.732 166.494,77.638 167.392,77.275L167.392,77.275ZM112.514,76.518C113.257,76.108 113.615,75.601 113.712,74.82L113.786,74.225L113.408,73.905C112.951,73.517 112.27,73.49 111.449,73.829L110.855,74.074L110.274,73.889C109.538,73.655 108.98,73.098 108.629,72.247L108.354,71.578L108.213,68.883L108.445,67.63C109.077,64.229 110.509,62.657 111.941,63.793C112.26,64.046 112.752,64.286 113.035,64.327L113.549,64.401L114.307,63.757L114.307,62.428L113.674,61.699C113.304,61.271 112.791,60.866 112.435,60.719L111.828,60.469L109.255,60.614L108.543,61.032C106.442,62.266 105.28,64.819 105.129,68.532L105.053,70.39L105.268,71.478C105.926,74.808 108.076,76.818 111.007,76.844L111.907,76.852L112.514,76.518ZM101.877,74.284C102.749,73.344 103.28,66.898 102.872,62.218C102.637,59.526 102.333,58.799 101.151,58.099C99.145,56.911 98.115,58.014 95.51,64.15C94.85,65.702 93.909,67.908 93.417,69.052C92.926,70.196 92.492,71.338 92.454,71.589L92.383,72.046L93.259,72.841L94.318,72.841L94.708,72.486C94.922,72.291 95.403,71.457 95.778,70.634C96.586,68.856 96.429,68.948 98.053,69.297C99.686,69.648 99.578,69.466 99.436,71.642L99.315,73.488L99.521,73.919C99.938,74.787 101.226,74.987 101.877,74.284ZM98.643,66.264C98.018,66.091 97.507,65.89 97.507,65.818C97.507,65.574 99.151,62.221 99.491,61.773L99.829,61.327L100.069,61.581C100.442,61.976 100.706,65.233 100.449,66.267L100.366,66.601L100.073,66.59C99.911,66.583 99.268,66.437 98.643,66.264L98.643,66.264ZM176.418,74.237C179.519,73.243 181.924,71.028 181.918,69.17L181.916,68.458L181.608,67.878C181.182,67.074 180.686,66.721 179.862,66.635C179.07,66.553 178.905,66.4 179.214,66.032C180.245,64.802 180.169,62.83 179.05,61.814L178.618,61.423L177.063,61.213L175.67,61.629C173.88,62.163 171.786,62.974 171.214,63.355L170.766,63.654L170.766,64.024C170.766,64.227 171.04,65.208 171.374,66.203C171.709,67.198 172.175,68.848 172.41,69.87C173.507,74.626 173.892,75.046 176.418,74.237L176.418,74.237ZM175.556,71.987C175.281,71.647 174.905,70.388 174.862,69.663L174.828,69.09L176.354,68.519L177.879,67.948L178.403,68.104C180.55,68.744 179.737,70.857 176.95,71.88C175.759,72.317 175.819,72.312 175.556,71.987L175.556,71.987ZM174.145,67.028C174.004,66.607 173.662,64.881 173.66,64.578L173.658,64.264L174.381,63.937C176.187,63.122 177.524,63.478 177.509,64.771C177.497,65.777 176.213,66.887 174.774,67.136L174.213,67.232L174.145,67.028ZM89.183,72.456L89.645,72.219L89.917,71.601C90.066,71.262 90.408,70.048 90.677,68.904C92.177,62.526 93.1,58.271 93.1,57.739L93.1,57.136L92.773,56.755C92.408,56.33 91.651,56.055 90.844,56.054L90.31,56.053L89.879,56.545C89.402,57.091 89.185,57.766 88.613,60.488C88.38,61.595 88.151,62.355 88.037,62.403C87.759,62.518 85,61.835 84.826,61.608L84.677,61.415L84.826,60.377C84.908,59.806 84.975,58.709 84.975,57.939L84.975,56.539L84.677,56.129C84.098,55.335 82.732,55.056 81.93,55.567C81.304,55.965 81.039,56.796 80.709,59.396C80.395,61.873 79.683,65.712 79.112,68.01C78.929,68.747 78.779,69.64 78.779,69.996L78.779,70.642L79.715,71.652L80.97,71.652L82.038,70.538L82.534,69.127C82.807,68.35 83.153,67.304 83.303,66.8C83.453,66.297 83.648,65.738 83.738,65.557L83.901,65.229L84.748,65.329C85.214,65.384 86.106,65.536 86.731,65.667L87.867,65.905L87.867,66.183C87.867,66.336 87.642,67.412 87.367,68.574C87.092,69.736 86.859,70.977 86.85,71.331L86.834,71.975L87.607,72.692L88.164,72.692C88.47,72.692 88.929,72.586 89.183,72.456L89.183,72.456ZM25.211,129.493C17.49,128.139 8.576,124.886 2.353,121.15C1.65,120.728 1.021,120.383 0.956,120.383C0.89,120.383 0.837,108.109 0.837,92.675C0.837,77.435 0.868,64.967 0.905,64.967C0.942,64.967 1.391,65.256 1.903,65.609C7.331,69.353 15.426,73.362 23.559,76.336C26.305,77.34 31.948,79.265 35.677,80.471C37.522,81.068 37.507,81.038 36.434,82.004C29.511,88.234 24.468,102.32 24.149,116.315L24.071,119.75L24.238,121.663C24.509,124.779 24.943,126.495 25.975,128.522C26.237,129.035 26.451,129.487 26.451,129.525C26.451,129.603 25.732,129.584 25.211,129.493L25.211,129.493Z" style="fill:rgb(8,19,10);fill-rule:nonzero;"/>
        </g>
    </g>
</svg>
