<?xml version="1.0" encoding="UTF-8" standalone="no"?>
<!DOCTYPE svg PUBLIC "-//W3C//DTD SVG 1.1//EN" "http://www.w3.org/Graphics/SVG/1.1/DTD/svg11.dtd">
<svg width="100%" height="100%" viewBox="0 0 596 596" version="1.1" xmlns="http://www.w3.org/2000/svg" xmlns:xlink="http://www.w3.org/1999/xlink" xml:space="preserve" xmlns:serif="http://www.serif.com/" style="fill-rule:evenodd;clip-rule:evenodd;stroke-linejoin:round;stroke-miterlimit:2;">
    <g id="Layer-1" serif:id="Layer 1" transform="matrix(2.834646,0,0,2.834646,0,-123.294882)">
        <g id="g15018" transform="matrix(1,0,0,1,-1.071237,-2.919861)">
            <path id="path15019" d="M43.338,253.305C38.407,252.455 37.197,250.652 33.35,238.42C32.446,235.544 30.507,230.214 29.679,228.328C29.205,227.248 25.451,219.745 20.325,209.633C11.91,193.034 8.714,184.183 9.466,179.565C9.927,176.736 12.686,173.246 16.485,170.686C18.117,169.587 18.06,169.733 17.638,167.742C14.577,153.312 14.838,118.117 18.054,111.664C20.948,105.856 45.034,95.594 60.367,93.635C65.135,93.026 78.889,93.063 92.207,93.72C100.729,94.14 104.09,94.119 107.321,93.625C134.22,89.51 158.698,75.109 173.72,54.56C176.986,50.093 178.366,49.264 182.535,49.264C187.973,49.264 189.498,51.602 189.676,60.207C189.737,63.213 189.375,63.102 194,61.532L198.006,60.172L199.93,60.166C204.921,60.15 207.574,63.936 206.073,68.929C203.78,76.558 192.35,98.084 185.158,108.319C171.895,127.193 158.766,136.985 138.767,142.916C130.852,145.263 110.868,149.556 103.442,150.503C102.146,150.669 102.143,150.729 103.369,152.257C105.508,154.924 108.631,161.829 108.631,163.893C108.631,164.612 108.974,164.658 110.219,164.103C115.391,161.802 120.874,162.949 132.682,168.804C142.003,173.426 148.964,178.498 150.562,181.832C153.538,188.039 150.625,194.703 135.962,215.238C126.17,228.95 120.931,236.556 114.02,247.092C110.821,251.968 109.699,252.813 105.779,253.301C103.804,253.546 44.761,253.55 43.338,253.305L43.338,253.305Z" style="fill:rgb(75,231,67);fill-rule:nonzero;"/>
            <path id="path15018" d="M43.338,253.105C38.804,252.324 37.385,250.397 34.363,240.918C31.1,230.685 30.625,229.576 23.412,215.337C6.861,182.667 6.203,178.552 16.324,171.057C17.327,170.314 18.148,169.596 18.148,169.461C18.148,169.327 17.974,168.375 17.761,167.346C15.426,156.042 14.995,137.578 16.648,119.61C17.485,110.522 18.499,109.257 29.232,103.926C44.958,96.114 56.321,93.373 72.861,93.404C79.767,93.417 83.911,93.538 94.424,94.033C104.164,94.491 108.451,94.075 117.297,91.813C140.787,85.806 159.759,73.35 173.884,54.66C177.286,50.158 178.45,49.426 182.388,49.311L184.907,49.238L186.016,49.902C188.663,51.487 189.35,53.957 189.638,62.926C189.647,63.205 190.537,62.961 194.379,61.63L198.006,60.373L199.921,60.376C204.848,60.383 207.277,63.847 205.862,68.849C204.027,75.337 193.387,95.772 186.564,105.911C172.809,126.354 159.187,136.759 138.154,142.89C130.295,145.18 110.572,149.394 103.468,150.3C101.802,150.512 101.8,150.548 103.325,152.54C105.414,155.268 107.875,160.79 108.534,164.226C108.66,164.886 108.978,164.915 110.066,164.364C114.832,161.953 120.357,163.041 131.907,168.668C141.614,173.397 148.775,178.518 150.377,181.878C153.296,187.999 150.391,194.649 135.938,214.938C125.44,229.675 120.987,236.128 114.606,245.858C110.723,251.78 109.708,252.612 105.779,253.101C103.804,253.346 44.761,253.351 43.338,253.105L43.338,253.105ZM45.641,247.093C46.052,246.717 43.92,237.081 42.264,231.825C40.809,227.211 38.918,223.159 33.95,214.017C27.494,202.134 24.461,196.044 22.15,190.322C18.692,181.759 18.26,180.397 18.797,179.757C19.34,179.111 21.917,177.653 30.452,173.167C32.065,172.319 33.743,171.402 34.18,171.129C38.293,168.564 41.405,166.941 41.628,167.244C41.757,167.418 42.245,168.826 42.713,170.372L43.563,173.183L42.362,174.483C33.879,183.663 41.219,200.551 55.329,204.318C58.269,205.103 60.177,205.378 63.692,205.524L66.614,205.645L66.551,207.344C66.516,208.278 66.314,210.526 66.102,212.34C65.268,219.469 65.404,222.032 66.614,222.032C67.914,222.032 69.742,215.223 70.337,208.158C70.6,205.037 70.528,205.228 71.499,205.057C76.589,204.157 86.867,200.721 86.867,199.92C86.867,199.536 80.784,200.03 74.073,200.959C63.062,202.483 56.001,201.583 50.438,197.949C41.258,191.952 39.295,179.246 46.804,174.429C50.132,172.294 50.582,171.546 50.589,168.135C50.591,166.844 50.681,165.745 50.789,165.679C51.102,165.487 56.195,168.747 56.79,169.521L57.326,170.217L56.932,170.509C56.195,171.055 52.589,172.732 51.383,173.091C48.542,173.935 48.677,176.024 51.55,175.671C54.61,175.296 61.065,172.29 62.169,170.727C63.031,169.507 62.674,169.095 58.855,166.899C50.827,162.282 51.472,162.867 52.388,161.025C56.148,153.465 64.153,149.765 75.683,150.26C91.558,150.941 99.434,157.129 100.792,169.99C101.535,177.03 99.464,202.968 97.439,211.97C96.894,214.394 96.781,215.215 96.937,215.622C97.206,216.322 97.697,216.484 98.135,216.015C98.932,215.161 103.397,204.418 112.145,182.306C116.831,170.459 116.334,171.496 117.266,171.626C119.476,171.934 129.535,176.405 134.426,179.253C135.036,179.608 136.486,180.43 137.649,181.08C140.209,182.509 142.692,184.306 143.059,184.995C143.456,185.739 141.53,189.234 136.799,196.352C133.588,201.185 128.541,208.111 122.238,216.337C117.793,222.137 113.548,228.143 109.028,235.022C107.295,237.66 104.864,241.335 103.627,243.189C101.101,246.972 101.085,247.013 102.132,247.185C105.638,247.76 105.074,248.274 111.756,238.42C118.399,228.625 120.634,225.385 123.03,222.08C135.48,204.908 138.893,200.018 142.592,194.054C148.109,185.157 148.3,183.507 144.099,181.058C143.379,180.639 142.245,179.959 141.58,179.549C129.824,172.293 119.434,167.572 116.068,167.958C114.065,168.188 113.335,169.163 111.486,174.069C109.527,179.268 107.897,183.701 106.708,187.059C104.681,192.786 102.78,197.835 102.574,198.041C102.32,198.294 102.321,198.278 102.779,193.004C104.415,174.14 104.282,167.435 102.146,161.035C99.176,152.135 89.32,147.176 74.634,147.193C58.591,147.212 48.74,154.534 47.864,167.093C47.707,169.346 47.284,170.538 46.495,170.955C45.799,171.323 45.883,171.48 45.06,168.265C43.559,162.401 43.549,162.397 37.113,165.726C34.829,166.907 32.869,167.898 32.758,167.927C32.647,167.957 32.412,167.417 32.234,166.728C32.057,166.039 31.335,163.424 30.631,160.916C29.172,155.719 29.148,156.047 31.067,154.938C39.154,150.26 56.598,145.962 71.048,145.086C72.156,145.019 74.514,144.84 76.287,144.688C79.645,144.401 83.822,144.135 90.494,143.785C115.224,142.486 132.046,139.191 147.827,132.556C164.292,125.634 177.841,111.573 191.499,87.235C196.848,77.703 201.646,68.33 202.169,66.394C202.669,64.54 201.532,64.202 198.712,65.367C191.342,68.411 183.648,71.302 183.369,71.131C183.183,71.017 183.249,70.105 183.812,65.052C184.639,57.617 184.812,53.095 184.289,52.576C183.418,51.712 182.801,52.16 180.259,55.507C158.067,84.718 127.217,100.278 94.726,98.649C68.344,97.325 61.965,97.475 53.414,99.622C43.701,102.06 35.759,105.21 26.813,110.173C22.061,112.809 22.359,112.22 21.678,120.31C20.2,137.855 21.064,154.155 24.227,168.428C24.964,171.754 25.077,171.438 22.652,172.87C14.26,177.829 13.677,178.753 15.527,184.161C17.945,191.23 21.597,199.414 26.521,208.799C28.263,212.12 31.011,217.356 32.625,220.434C36.993,228.757 37.961,231.163 39.921,238.555C42.462,248.136 42.206,247.61 44.225,247.395C44.901,247.323 45.538,247.187 45.641,247.093ZM27.749,170.418C27.009,169.231 25.083,158.387 24.511,152.186C23.043,136.281 23.663,112.699 25.509,114.219C25.815,114.471 25.971,114.408 27.015,113.605C29.736,111.514 38.123,107.18 43.482,105.096C57.137,99.785 70.546,98.561 94.525,100.437C102.856,101.088 107.68,100.897 114.476,99.644C141.386,94.683 163.094,81.436 180.464,59.377C182.508,56.781 182.452,56.49 181.582,65.252C180.884,72.286 180.844,73.484 181.294,73.931C181.762,74.395 181.684,74.418 187.439,72.083C193.258,69.722 198.403,67.877 198.608,68.08C199.017,68.486 188.728,87.599 184.746,93.83C167.335,121.07 152.383,131.338 121.63,137.172C108.913,139.585 99.853,140.771 87.875,141.591C69.315,142.861 68.237,142.953 60.669,143.902C48.738,145.398 39.058,148.145 30.578,152.439C26.734,154.385 26.734,154.385 26.884,155.767C27.016,156.989 29.756,168.051 30.071,168.635C30.36,169.171 28.068,170.93 27.749,170.418ZM46.721,136.828C47.834,136.042 48.038,135.269 48.136,131.463C48.205,128.814 48.288,128.004 48.499,127.923C48.65,127.866 49.943,127.758 51.372,127.683L53.972,127.547L54.295,128.037C54.495,128.339 54.739,129.553 54.933,131.213C55.39,135.114 55.754,135.798 57.369,135.798C60.4,135.798 60.716,134.241 59.571,124.951C59.188,121.849 58.779,118.366 58.662,117.212C58.348,114.113 58.289,113.884 57.649,113.248C56.278,111.889 53.669,112.738 52.996,114.761C52.737,115.539 52.86,118.638 53.208,120.11C53.477,121.251 53.289,121.342 50.361,121.479C47.376,121.619 47.521,121.707 47.178,119.54C46.404,114.647 44.252,112.848 41.46,114.76C40.096,115.695 40.015,116.071 40.599,118.771C41.736,124.026 42.006,125.966 42.42,131.847C42.717,136.062 42.839,136.47 44.01,137.151C44.612,137.502 46.001,137.336 46.721,136.828ZM66.715,134.021C67.356,133.564 67.622,132.761 68.024,130.076C68.415,127.467 68.023,127.784 71.012,127.655C74.002,127.527 73.715,127.265 74.46,130.807C75.086,133.785 75.474,134.32 76.878,134.133C79.221,133.821 79.298,132.255 77.367,124.212C74.519,112.351 71.684,108.333 68.3,111.364C66.869,112.646 66.188,114.791 65.202,121.109C64.911,122.978 64.406,126.079 64.081,128C63.322,132.489 63.318,133.166 64.045,133.837C64.969,134.691 65.706,134.742 66.715,134.021L66.715,134.021ZM68.81,122.925C68.6,122.385 70.373,116.213 70.738,116.213C71.401,116.213 73.14,122.403 72.621,122.918C72.21,123.325 68.967,123.332 68.81,122.925L68.81,122.925ZM93.517,132.886C96.499,131.515 97.463,128.888 95.489,127.516C94.831,127.059 94.404,127.127 93.141,127.888C90.306,129.595 88.085,128.283 86.751,124.113C84.728,117.792 87.018,111.298 90.379,113.82C92.751,115.6 94.606,112.837 92.555,110.581C89.097,106.777 82.794,109.797 81.494,115.882C80.747,119.375 81.46,125.282 82.956,128C85.184,132.049 90.246,134.391 93.517,132.886ZM103.053,131.073C104.37,130.092 104.79,128.754 104.798,125.506C104.804,123.206 104.87,122.989 105.98,121.619C106.479,121.002 106.609,121.1 108.029,123.158C113.774,131.485 113.651,131.378 115.676,129.79C116.76,128.94 117.19,128.205 117.012,127.502C116.844,126.837 111.658,120.288 109.94,118.571L108.852,117.483L110.173,115.301C112.667,111.184 112.886,110.484 111.951,109.613C110.532,108.29 109.552,109.066 106.717,113.755C104.394,117.597 104.33,117.65 103.897,116.077C102.106,109.564 101.111,108.172 98.902,109.087C97.395,109.712 97.076,110.848 97.875,112.745C99.569,116.764 100.59,124.352 99.929,128.004C99.566,130.012 99.622,130.398 100.371,131.061C101.128,131.733 102.16,131.737 103.053,131.073L103.053,131.073ZM140.202,121.397C142.463,120.439 145.258,117.836 145.023,116.907C144.621,115.321 142.754,115.09 140.818,116.388C137.752,118.442 136.29,118.218 134.109,115.36C131.046,111.346 130.803,106.889 133.559,105.288L134.456,104.767L135.521,105.126C137.905,105.93 138.668,103.694 136.509,102.229C134.816,101.08 132.324,101.493 130.302,103.258C123.574,109.131 132.133,124.814 140.202,121.397ZM150.863,115.302C153.554,113.727 156.363,111.808 156.895,111.181C158.199,109.644 156.12,108.027 154.377,109.222C153.064,110.123 150.058,111.632 149.686,111.578C149.36,111.53 149.065,111.016 148.335,109.218C145.348,101.869 142.95,97.627 141.782,97.627C139.597,97.627 139.906,99.163 143.692,107.12C144.267,108.329 145.188,110.442 145.739,111.816C147.239,115.558 147.363,115.817 147.814,116.138C148.396,116.551 149.019,116.38 150.863,115.302ZM162.95,106.401C164.588,105.645 166.22,103.537 166.579,101.711C166.721,100.99 165.553,98.546 162.612,93.41C159.723,88.365 158.985,87.661 157.808,88.829C156.899,89.73 157.1,90.605 158.827,93.275C159.872,94.891 162.091,99.172 162.549,100.457C162.882,101.39 162.458,102.279 161.386,102.896C159.99,103.699 159.848,103.551 154.668,95.913C152.463,92.661 151.489,92.029 150.517,93.219C149.872,94.009 150.051,94.702 151.491,96.988C157.221,106.089 159.525,107.981 162.95,106.401ZM172.655,97.46C176.549,94.24 177.925,91.571 176.831,89.356C175.837,87.342 174.225,86.24 172.271,86.237L171.525,86.236L171.642,85.255C172.104,81.39 169.194,79.83 165.718,82.08C160.986,85.144 160.996,85.43 166.079,92.231C166.695,93.056 167.724,94.539 168.366,95.529C170.497,98.813 170.834,98.965 172.655,97.46L172.655,97.46ZM171.066,94.28C170.9,94.087 170.278,93.222 169.682,92.356L168.6,90.782L169.196,90.295C171.161,88.692 172.199,88.397 173.13,89.174C174.607,90.407 174.531,91.677 172.868,93.527C171.803,94.712 171.535,94.824 171.066,94.28ZM166.404,87.578C165.082,85.529 165.1,85.641 165.986,84.878C167.596,83.489 168.43,83.368 168.989,84.441C169.572,85.559 169.39,86.481 168.364,87.613C167.224,88.87 167.238,88.87 166.404,87.578L166.404,87.578ZM68.662,197.136C71.098,195.966 72.951,192.404 75.308,184.361C76.146,181.504 76.211,181.119 76.151,179.398L76.086,177.533L74.703,176.309L71.969,176.431C64.698,176.757 54.714,178.341 54.108,179.266C53.236,180.596 58.464,190.341 62.181,194.312C64.894,197.212 66.786,198.036 68.662,197.136L68.662,197.136ZM65.868,195.355C62.966,193.793 54.617,180.47 56.169,179.879C57.54,179.357 73.679,177.843 74.107,178.196C75.513,179.353 71.377,192.505 68.841,194.943C67.981,195.77 66.914,195.918 65.868,195.355ZM86.861,178.516C86.857,178.378 86.433,177.951 85.919,177.566C82.46,174.981 76.184,169.507 76.189,169.079C76.19,168.966 78.308,167.804 80.895,166.498C88.409,162.704 90.027,161.368 88.871,159.911C88.041,158.865 85.624,159.753 77.194,164.199C70.445,167.758 70.129,168.842 74.675,172.83C78.513,176.196 86.901,180.11 86.861,178.516Z" style="fill:rgb(6,19,12);fill-rule:nonzero;"/>
        </g>
    </g>
</svg>
