<?xml version="1.0" encoding="UTF-8" standalone="no"?>
<!DOCTYPE svg PUBLIC "-//W3C//DTD SVG 1.1//EN" "http://www.w3.org/Graphics/SVG/1.1/DTD/svg11.dtd">
<svg width="100%" height="100%" viewBox="0 0 596 596" version="1.1" xmlns="http://www.w3.org/2000/svg" xmlns:xlink="http://www.w3.org/1999/xlink" xml:space="preserve" xmlns:serif="http://www.serif.com/" style="fill-rule:evenodd;clip-rule:evenodd;stroke-linejoin:round;stroke-miterlimit:2;">
    <g id="Layer-1" serif:id="Layer 1" transform="matrix(2.834646,0,0,2.834646,0,-123.294882)">
        <g id="g1" transform="matrix(1.118246,0,0,1.118246,-11.569787,12.899662)">
            <path id="path2" d="M69.347,209.426C59.247,208.389 50.201,203.104 43.789,194.494C40.622,190.243 38.029,184.255 37.766,180.587L37.622,178.587L38.164,177.361C38.821,175.877 38.909,175.965 35.442,174.635C30.262,172.648 29.988,172.137 21.685,148.986C20.432,145.494 19.071,141.743 18.66,140.65C15.986,133.537 16.441,130.228 20.361,128.279C21.438,127.743 25.621,126.458 36.5,123.321C39.847,122.355 46.634,120.371 51.581,118.91C79.514,110.665 75.881,109.357 85.143,130.994L86.615,134.434L87.235,134.513C87.737,134.576 88.286,134.074 90.126,131.867C91.376,130.368 93.735,127.595 95.37,125.703C103.042,116.827 104.602,111.338 103.163,98.293C102.667,93.791 102.477,93.183 101.654,93.447C97.564,94.759 93.373,94.21 90.222,91.949C86.254,89.103 80.517,79.35 79.495,73.714C79.299,72.63 78.893,71.621 78.317,70.784C75.214,66.273 77.397,59.635 82.983,56.595C83.971,56.057 84.584,55.443 85.426,54.145C91.342,45.028 101.033,38.13 110.733,36.132L113.494,35.563L117.463,35.692C133.163,36.2 147.059,50.143 155.325,73.681C156.013,75.641 156.558,75.857 158.793,75.055C166.288,72.367 172.692,79.412 177.897,96.069C180.657,104.906 182.002,107.371 185.664,110.306C186.355,110.86 187.149,111.753 187.427,112.29C187.706,112.828 188.573,113.926 189.353,114.73C192.55,118.027 193.221,125.786 191.283,137.048C185.326,171.655 166.007,193.475 133.999,201.748C130.31,202.701 128.182,203.107 121.167,204.198C119.82,204.408 115.633,204.542 109.657,204.568L100.265,204.609L96.428,205.808C87.065,208.735 76.439,210.155 69.347,209.426L69.347,209.426Z" style="fill:rgb(40,173,62);fill-rule:nonzero;"/>
            <path id="path1" d="M66.821,208.752C56.255,206.982 46.779,199.938 41.054,189.6C38.511,185.008 37.355,179.038 38.608,176.966L39.128,176.106L38.74,175.758C38.527,175.566 37.221,174.97 35.839,174.435C30.566,172.391 30.8,172.771 24.67,156.262C18.144,138.686 17.252,135.884 17.369,133.351L17.456,131.474L18.202,130.496C19.685,128.553 20.081,128.401 34.913,124.11C38.26,123.142 42.427,121.929 44.173,121.415C45.919,120.9 48.896,120.029 50.788,119.479C52.679,118.928 55.418,118.124 56.873,117.691C78.341,111.31 75.951,110.167 84.819,131.049C86.79,135.692 87.245,135.957 89.102,133.547C89.512,133.016 91.536,130.634 93.6,128.254C101.236,119.45 102.729,116.801 103.58,110.547C104.161,106.277 103.468,94.14 102.593,93.265C102.387,93.059 101.776,93.107 100.422,93.436C98.033,94.016 94.471,93.857 92.724,93.091C87.832,90.947 80.902,80.413 79.774,73.408C79.618,72.444 79.297,71.552 78.987,71.221C75.442,67.448 77.237,60.658 82.705,57.153C83.675,56.531 84.665,55.746 84.905,55.408C89.872,48.412 92.643,45.527 97.606,42.185C118.001,28.455 138.777,37.394 151.547,65.395C153.084,68.765 155.43,74.578 155.43,75.017C155.43,75.904 157.168,76.024 159.135,75.272C162.228,74.089 165.59,75.294 169.042,78.821C172.643,82.502 174.482,86.212 177.528,95.937C180.589,105.715 181.678,107.682 185.622,110.557C186.147,110.94 186.788,111.706 187.046,112.26C187.304,112.814 188.202,113.989 189.042,114.871C190.268,116.16 190.684,116.835 191.161,118.311L191.754,120.147L191.88,124.635C192.218,136.615 188.471,152.006 182.225,164.297C169.032,190.258 141.179,205.118 107.166,204.342L100.529,204.191L96.792,205.365C86.181,208.701 74.434,210.028 66.821,208.752ZM83.331,204.309C87.855,203.53 92.541,202.407 96.957,201.041L100,200.101L107.938,200.046C144.473,199.792 170.881,183.733 182.551,154.675C186.414,145.058 188.323,135.307 188.353,125.041L188.371,119.088L187.905,118.236C186.452,115.578 184.923,116.225 182.136,120.676C173.96,133.733 167.872,141.537 168.509,138.144C169.777,131.386 158.058,88.272 149.732,69.059C136.116,37.642 113.438,29.734 93.642,49.499C89.703,53.432 86.641,57.91 87.189,58.935C87.742,59.968 88.51,59.347 90.674,56.117C97.671,45.67 110.791,38.769 119.867,40.762C137.595,44.655 149.476,65.522 161.919,114.618C165.949,130.519 167.059,139.138 165.524,142.608C164.454,145.028 157.95,151.016 152.707,154.41C149.5,156.486 149.036,156.969 149.746,157.488C151.625,158.862 161.511,151.375 168.659,143.165C173.714,137.359 180.457,127.907 184.005,121.658C186.107,117.953 186.529,118.696 186.303,125.703C184.973,166.86 156.489,194.784 113.275,197.296C107.087,197.656 106.508,197.486 109.571,196.214C114.651,194.106 117.005,192.555 116.626,191.567C116.404,190.988 115.911,191.097 113.687,192.215C100.248,198.967 77.543,204.302 68.475,202.839C57.261,201.03 47.272,192.3 44.438,181.832L43.961,180.072L44.439,179.544C44.702,179.254 45.054,179.016 45.222,179.016C45.39,179.016 45.743,178.859 46.006,178.666L46.485,178.316L46.133,177.752C45.623,176.936 45.974,176.765 48.099,176.79C56.761,176.891 68.191,189.45 67.626,198.244C67.605,198.561 67.279,199.188 66.9,199.637C66.077,200.617 66.225,201.241 67.28,201.241C71.944,201.241 70.208,191.334 64.216,183.756C62.226,181.239 60.285,179.662 56.673,177.627C53.631,175.913 53.714,175.777 57.138,176.868C58.447,177.286 60.962,178.065 62.725,178.601L65.931,179.575L67.62,179.007C71.183,177.808 79.187,173.798 85.58,170.009C87.254,169.017 90.945,166.819 93.782,165.125C102.215,160.091 107.602,157.747 112.36,157.044C113.42,156.887 114.67,156.702 115.138,156.632C117.444,156.291 116.169,155.061 113.55,155.101C108.209,155.182 102.282,157.64 90.343,164.723C79.358,171.241 78.536,171.708 74.52,173.718C68.404,176.778 66.345,177.382 65.908,176.246C65.795,175.95 66.778,175.36 69.857,173.877C74.721,171.534 80.155,168.618 87.036,164.657C93.8,160.764 94.191,160.488 94.132,159.632L94.084,158.939L96.248,158.229C105.345,155.244 110.927,149.448 118.937,134.672C120.428,131.922 122.403,128.462 123.326,126.984C125.098,124.145 125.326,123.454 124.494,123.454C123.133,123.454 121.381,125.926 117.086,133.905C109.421,148.147 102.521,154.922 93.518,157.05C88.526,158.23 82.862,157.176 80.132,154.559L78.966,153.442L78.966,152.374C78.966,151.277 79.51,150.341 80.794,149.228C81.556,148.569 81.344,148.06 80.309,148.06C78.768,148.06 77.132,150.254 77.12,152.338C77.113,153.427 76.806,153.635 75.677,153.316C74.694,153.038 74.477,152.685 74.472,151.353C74.458,147.616 79.903,142.659 86.525,140.381C88.562,139.68 88.755,139.704 88.755,140.66C88.755,142.655 89.763,142.038 92.517,138.356C93.733,136.729 96.525,133.332 98.72,130.807C106.288,122.102 107.858,119.277 108.983,112.341C110.129,105.277 108.397,88.529 106.521,88.529C105.419,88.529 105.318,89.138 105.917,92.169C107.88,102.091 107.791,111.386 105.678,117.176C104.301,120.95 102.804,123.091 96.944,129.672C94.87,132 92.553,134.738 91.794,135.757L90.415,137.609L88.064,138.096C86.771,138.364 85.447,138.645 85.122,138.721C84.655,138.831 84.472,138.701 84.245,138.102C83.747,136.79 78.167,123.183 76.935,120.279C74.922,115.53 75.326,115.611 66.484,118.179C62.944,119.207 51.553,122.484 41.169,125.461C20.916,131.267 21.597,131.046 20.778,132.087C19.647,133.525 19.714,133.747 27.483,154.227C29.46,159.438 31.458,164.795 31.923,166.133C33.21,169.835 32.856,169.638 44.901,173.352C46.721,173.913 46.753,174.033 45.298,174.831C44.64,175.191 43.989,175.816 43.73,176.334C43.486,176.822 43.047,177.476 42.755,177.788C41.215,179.432 41.638,181.912 44.392,187.393C49.145,196.852 57.437,202.821 68.912,205.043C70.812,205.411 79.497,204.969 83.331,204.309ZM61.371,176.252C60.207,175.916 57.171,175.021 54.624,174.263C52.078,173.505 48.625,172.485 46.951,171.997C40.932,170.242 35.434,168.378 35.004,167.947C34.496,167.437 33.854,165.825 26.945,147.713C24.124,140.319 21.816,134.074 21.816,133.836C21.816,132.919 22.361,134.05 24.208,138.8C26.697,145.202 34.155,163.784 34.673,164.875L35.076,165.726L42.27,168.234C46.227,169.614 52.441,171.722 56.079,172.918C64.25,175.605 64.078,175.54 64.263,176.022C64.653,177.037 64.216,177.072 61.371,176.252ZM51.449,169.517C33.543,163.437 34.741,164.223 39.94,161.965C41.104,161.459 46.878,158.939 52.772,156.365C68.549,149.475 73.089,147.535 73.45,147.532C73.545,147.532 73.414,148.096 73.158,148.788L72.694,150.044L71.001,150.908C70.07,151.383 67.165,152.767 64.546,153.982C61.927,155.198 57.819,157.11 55.418,158.232C53.017,159.353 49.743,160.881 48.142,161.626C43.704,163.693 43.727,163.609 47.278,164.833L49.498,165.599L50.272,165.228C51.478,164.65 51.419,164.019 50.126,163.67C48.85,163.327 48.863,163.018 50.186,162.251L51.148,161.692L51.762,162.245C52.727,163.115 53.226,163.171 54.497,162.553C55.863,161.89 55.979,161.509 54.958,161.044L54.233,160.714L54.744,160.34C55.402,159.859 55.508,159.866 56.714,160.482L57.725,160.998L58.754,160.452C60.157,159.707 60.147,159.734 59.266,159.029L58.484,158.404L58.959,158.222C59.225,158.12 59.837,158.231 60.346,158.474C61.539,159.043 61.923,159.022 62.884,158.338L63.684,157.768L63.057,157.294C61.982,156.482 62.767,156.058 64.386,156.575L65.684,156.99L66.504,156.593C67.421,156.149 67.556,155.631 66.861,155.222L66.398,154.949L66.795,154.682C67.013,154.536 67.37,154.484 67.589,154.568C68.571,154.944 69.605,154.953 70.092,154.59L70.611,154.203L70.249,153.766C69.819,153.248 70.03,153.008 71.276,152.591C72.282,152.254 72.528,152.385 72.66,153.325C72.815,154.439 74.021,155.078 75.864,155.023L77.482,154.975L78.337,155.685C78.808,156.075 79.469,156.598 79.807,156.846L80.421,157.297L79.859,157.309C79.55,157.315 78.732,157.07 78.04,156.764C76.695,156.169 75.526,156.355 75.526,157.164C75.526,157.529 78.012,158.643 78.828,158.643C79.032,158.643 79.273,158.762 79.363,158.908C79.612,159.311 80.758,159.224 81.487,158.747C81.844,158.512 82.32,158.391 82.545,158.477L82.953,158.634L82.518,159.297C81.999,160.09 81.954,160.065 84.919,160.625C87.653,161.141 87.655,161.141 88.01,160.363L88.311,159.702L89.444,159.702C92.19,159.702 91.942,159.891 82.009,165.359C71.545,171.119 66.599,173.519 64.989,173.618L63.752,173.695L51.449,169.517ZM64.414,169.709C64.923,169.394 67.185,168.165 69.441,166.978C75.925,163.566 76.448,163.165 75.169,162.582L74.547,162.299L69.943,164.742C67.411,166.085 64.925,167.465 64.418,167.809C63.11,168.695 61.037,168.177 54.249,165.268C52.803,164.648 52.272,164.606 51.319,165.041C50.039,165.624 50.673,166.082 54.624,167.431C56.734,168.151 59.413,169.079 60.577,169.493C63.173,170.416 63.265,170.421 64.414,169.709ZM64.09,166.434C64.982,165.809 64.803,165.349 63.472,164.841L62.267,164.381L61.356,164.815C60.176,165.378 60.202,165.88 61.437,166.387C62.742,166.922 63.377,166.934 64.09,166.434L64.09,166.434ZM59.567,164.663C60.699,163.892 60.673,163.474 59.464,162.969C56.667,161.801 53.833,163.343 56.522,164.571C58.3,165.383 58.5,165.389 59.567,164.663L59.567,164.663ZM67.618,164.317C69.291,163.451 67.758,162.24 65.751,162.841C64.551,163.201 64.387,163.701 65.266,164.317C66.009,164.837 66.612,164.837 67.618,164.317ZM63.479,162.431C64.737,161.831 64.658,161.494 63.087,160.758L61.76,160.137L60.838,160.576C59.607,161.163 59.672,161.732 61.04,162.34C62.45,162.966 62.363,162.963 63.479,162.431L63.479,162.431ZM71.557,162.074L72.219,161.547L71.69,161.142C70.592,160.302 68.382,160.505 68.382,161.445C68.382,162.438 70.559,162.869 71.557,162.074ZM78.818,161.792C79.995,161.098 79.999,160.833 78.842,160.35C77.679,159.864 77.682,159.864 76.627,160.507L75.743,161.046L76.089,161.462C76.402,161.839 77.232,162.289 77.694,162.331C77.795,162.34 78.301,162.098 78.818,161.792L78.818,161.792ZM67.523,160.234C68.623,159.563 68.604,159.395 67.354,158.692C66.129,158.004 65.416,157.966 64.537,158.542C63.614,159.146 63.721,159.516 65.009,160.162C66.416,160.869 66.477,160.871 67.523,160.234L67.523,160.234ZM75.027,160.083C76.021,159.569 75.916,159.182 74.608,158.534L73.586,158.029L72.904,158.411C71.693,159.091 72.342,160.171 74.15,160.482C74.194,160.489 74.588,160.31 75.027,160.083ZM70.781,158.37C71.551,157.958 71.4,157.432 70.373,156.944L69.452,156.507L68.653,156.921C67.639,157.445 67.648,157.652 68.713,158.182C69.747,158.696 70.109,158.729 70.781,158.37ZM74.329,156.272C74.719,155.642 72.068,154.67 71.422,155.207C70.802,155.721 70.947,155.987 72.139,156.521C73.227,157.008 73.924,156.929 74.329,156.272ZM34.721,160.165C34.349,159.255 32.531,154.761 30.683,150.177C28.834,145.593 26.499,139.845 25.495,137.405C24.49,134.964 23.668,132.86 23.668,132.729C23.668,132.407 24.601,132.115 36.765,128.638C47.628,125.532 64.07,120.793 70.004,119.058C74.012,117.885 73.903,117.855 74.972,120.453C80.515,133.914 82.7,139.635 82.425,139.967C82.261,140.164 81.352,140.779 80.404,141.333C79.456,141.887 78.001,142.888 77.17,143.557C76.339,144.225 74.944,145.058 74.071,145.406C71.565,146.406 64.274,149.482 61.371,150.764C47.536,156.875 36.092,161.818 35.78,161.818C35.561,161.818 35.11,161.115 34.721,160.165ZM38.315,156.004C39.26,154.959 39.731,153.87 39.441,153.401C39.155,152.938 36.16,151.975 35.58,152.159C34.72,152.432 35.046,153.122 36.229,153.531C37.707,154.042 37.793,154.207 37.148,155.3C36.076,157.117 36.874,157.6 38.315,156.004ZM44.305,154.317C44.305,153.738 44.054,153.662 43.101,153.954C42.001,154.292 41.273,155.034 41.49,155.598L41.649,156.012L42.977,155.339C43.708,154.969 44.305,154.509 44.305,154.317ZM44.149,151.736C44.596,151.384 45.098,151.224 45.507,151.302C45.923,151.382 46.457,151.203 47.001,150.801C47.658,150.317 48.187,150.177 49.356,150.177L50.864,150.177L51.62,149.396C52.035,148.967 52.584,148.372 52.838,148.074C53.093,147.775 53.576,147.531 53.912,147.531C54.773,147.531 55.541,146.91 55.337,146.379C54.964,145.406 52.348,146.108 50.959,147.554L49.945,148.609L48.911,148.445C48.068,148.311 47.692,148.407 46.873,148.964C46.321,149.34 45.534,149.648 45.123,149.648C44.713,149.648 44.058,149.898 43.668,150.205C43.09,150.66 42.747,150.731 41.804,150.589C39.943,150.31 39.906,151.469 41.759,152.006C43.036,152.376 43.385,152.337 44.149,151.736ZM39.513,148.044C40.152,147.897 40.974,147.541 41.34,147.253C41.819,146.876 42.237,146.772 42.828,146.883C43.872,147.079 44.756,146.74 45.834,145.734C47.268,144.395 46.45,143.735 44.806,144.905C44.226,145.318 43.828,145.41 43.204,145.273C42.594,145.139 41.982,145.268 40.892,145.759C40.077,146.127 39.024,146.572 38.551,146.747C37.748,147.045 37.425,147.707 37.867,148.148C38.088,148.369 38.108,148.368 39.513,148.044ZM34.561,145.77C35.188,145.202 35.17,144.911 34.448,144.014L33.854,143.276L32.994,143.577C31.997,143.927 31.767,144.885 32.68,144.885C33.042,144.885 33.21,145.042 33.179,145.348C33.153,145.603 33.146,145.9 33.162,146.01C33.217,146.364 34.065,146.219 34.561,145.77L34.561,145.77ZM59.087,144.986C60.014,144.639 61.008,144.356 61.296,144.356C61.583,144.356 62.135,144.192 62.521,143.992C62.907,143.792 64.636,143.171 66.363,142.612C69.401,141.627 70.185,141.117 69.413,140.629C68.882,140.293 67.374,140.612 66.034,141.343C65.397,141.69 64.469,141.975 63.97,141.975C63.472,141.975 62.726,142.15 62.312,142.364C61.898,142.578 61.1,142.868 60.539,143.009C57.208,143.844 55.242,144.838 55.515,145.55C55.715,146.071 56.529,145.942 59.087,144.986ZM39.135,143.042C39.812,142.504 40.393,142.267 40.985,142.29C41.522,142.31 42.42,141.995 43.363,141.455L44.879,140.587L46.203,141.19L48.264,140.26C49.398,139.748 50.445,139.329 50.591,139.329C50.737,139.329 51.537,139.017 52.369,138.636C53.514,138.112 54.143,137.978 54.951,138.087C56.254,138.261 57.151,137.948 58.196,136.953C58.755,136.421 59.382,136.143 60.313,136.014C61.04,135.914 62.112,135.56 62.694,135.228C63.276,134.896 64.362,134.443 65.107,134.223C65.853,134.002 66.865,133.608 67.356,133.348C67.886,133.068 68.843,132.87 69.705,132.861C70.773,132.85 71.584,132.635 72.748,132.053C75.473,130.69 74.739,129.666 71.91,130.883C70.923,131.307 70.329,131.395 69.305,131.269L67.978,131.104L66.923,131.902C66.297,132.376 65.541,132.703 65.061,132.707C64.616,132.711 63.666,133.086 62.949,133.541C62.034,134.121 61.139,134.431 59.954,134.578L58.263,134.788L56.322,136.683L54.672,136.683C53.364,136.683 52.695,136.848 51.449,137.477C50.584,137.913 49.56,138.271 49.173,138.271C48.786,138.271 48.098,138.497 47.644,138.774C47.098,139.108 46.367,139.27 45.483,139.254C44.44,139.235 43.827,139.412 42.692,140.062C41.862,140.537 41.015,140.839 40.72,140.765C40.399,140.684 39.712,140.988 38.901,141.57C38.184,142.083 37.395,142.504 37.147,142.504C36.59,142.504 35.998,143.178 36.228,143.551C36.576,144.113 38.129,143.841 39.135,143.042ZM32.079,140.237C32.814,139.723 33.768,137.904 33.571,137.392C33.442,137.054 30.803,135.964 29.753,135.814C28.788,135.676 29.385,136.83 30.612,137.477C32.031,138.224 32.098,138.391 31.307,139.232C30.36,140.241 30.96,141.022 32.079,140.237ZM40.998,136.948C41.726,136.516 42.555,136.161 42.841,136.158C43.586,136.152 45.667,135.35 46.29,134.83C46.965,134.266 50.138,133.246 51.256,133.234C51.726,133.229 52.408,133.055 52.772,132.847C53.136,132.639 54.101,132.464 54.918,132.459C56.032,132.452 56.757,132.26 57.828,131.69C58.613,131.272 59.671,130.846 60.18,130.742C63.422,130.083 68.912,127.482 68.912,126.606C68.912,125.884 67.814,125.947 66.302,126.755C64.975,127.465 61.147,128.842 59.651,129.147C59.142,129.251 58.028,129.68 57.177,130.099C56.102,130.629 55.227,130.862 54.319,130.862C53.599,130.862 52.64,131.054 52.186,131.288C51.733,131.523 50.995,131.752 50.546,131.797C48.825,131.972 45.83,132.964 44.913,133.664C44.347,134.095 43.415,134.48 42.636,134.603C41.851,134.727 41.057,135.056 40.674,135.416C40.283,135.783 39.7,136.022 39.194,136.022C38.205,136.022 37.876,136.835 38.639,137.393C39.299,137.876 39.495,137.839 40.998,136.948ZM179.551,116.163C182.357,115.645 184.704,115.171 184.767,115.108C184.83,115.045 183.824,113.917 182.531,112.601C178.853,108.859 177.347,106.093 175.799,100.237C173.051,89.846 171.898,86.898 168.855,82.476C167.028,79.82 163.207,76.623 161.861,76.623C161.134,76.623 161.128,76.678 161.686,78.141C162.259,79.64 162.082,79.738 160.265,78.936C158.86,78.316 156.473,77.681 155.55,77.681C154.8,77.681 155.185,78.557 156.612,80.098C160.585,84.389 162.568,88.856 165.087,99.187C167.176,107.757 168.089,110.131 170.81,114.079C171.519,115.108 172.099,116.067 172.099,116.209C172.099,117.343 173.19,117.336 179.551,116.163L179.551,116.163ZM172.964,116.112C172.867,115.857 172.273,115.015 171.643,114.241C169.185,111.218 167.512,106.998 165.753,99.377C163.47,89.485 161.558,84.974 157.772,80.546C156.512,79.073 156.22,78.475 156.762,78.475C157.462,78.475 160.455,79.657 161.597,80.385C163.253,81.44 163.578,81.15 162.859,79.257C162.217,77.568 162.304,77.415 163.535,78.078C168.033,80.5 171.675,87.07 174.482,97.823C176.619,106.013 178.138,109.169 181.573,112.562C183.957,114.915 184.119,114.749 178.449,115.755C173.029,116.718 173.191,116.707 172.964,116.112ZM175.501,113.56C176.322,113.357 177.321,113.116 177.722,113.025C178.858,112.768 178.576,112.341 177.268,112.341C175.427,112.341 175.062,111.244 176.707,110.654C177.078,110.521 177.136,110.393 176.922,110.18C176.633,109.89 174.296,110.334 172.481,111.024C171.379,111.443 172.046,111.998 173.219,111.639C174.259,111.319 174.66,111.424 175.026,112.108L175.301,112.622L174.362,113.014C172.487,113.798 173.185,114.132 175.501,113.56ZM176.136,109.034C176.171,108.889 175.815,108.732 175.344,108.687C174.832,108.637 174.323,108.371 174.078,108.025L173.669,107.447L174.395,106.863C175.202,106.214 175.092,105.846 174.162,106.081C173.227,106.318 171.113,107.743 170.783,108.359L170.488,108.91L171.095,109.159C171.884,109.482 176.052,109.379 176.136,109.034ZM172.994,106.003C174.483,105.437 174.844,103.407 173.545,102.909C172.914,102.666 172.766,103.01 173.173,103.771L173.542,104.461L172.924,104.961C172.158,105.581 170.289,105.65 170.106,105.065C170.038,104.847 169.914,104.46 169.831,104.205L169.68,103.742L169.302,104.256C168.254,105.68 170.744,106.859 172.994,106.003ZM171.401,102.316C173.975,101.602 174.401,101.082 172.298,101.221C171.423,101.278 171.381,100.935 172.118,99.744C172.995,98.324 172.429,98.059 171.314,99.367L170.347,100.5L169.517,100.071C168.483,99.536 168.13,99.529 168.13,100.04C168.13,100.26 168.607,100.63 169.189,100.863C170.454,101.369 170.512,101.614 169.453,101.983C167.259,102.748 168.857,103.022 171.401,102.316L171.401,102.316ZM170.066,96.977C171.957,96.452 172.63,95.145 171.56,94.075C170.831,93.346 170.355,93.675 170.912,94.524C171.445,95.338 171.125,95.816 169.799,96.182C168.63,96.505 167.601,96.146 167.601,95.415C167.601,94.794 166.937,94.69 166.712,95.276C166.195,96.621 168.018,97.546 170.066,96.977ZM168.994,93.38C169.902,93.138 170.803,92.796 170.998,92.619L171.353,92.299L170.926,91.472C170.412,90.478 169.869,90.375 170.047,91.305C170.209,92.152 169.922,92.364 168.064,92.775C167.136,92.98 166.543,93.249 166.543,93.466C166.543,93.929 166.997,93.913 168.994,93.38L168.994,93.38ZM167.892,90.608C169.652,90.017 170.199,88.97 169.28,87.954C168.452,87.04 164.691,87.608 164.691,88.648C164.691,89.149 164.673,89.149 165.841,88.661C166.363,88.443 167.204,88.264 167.709,88.264C169.521,88.264 169.138,89.355 167.118,89.943C166.454,90.137 165.864,90.434 165.807,90.603C165.676,90.998 166.725,91 167.892,90.608L167.892,90.608ZM166.144,86.858C168.698,86.139 168.875,85.772 167.389,84.286C166.168,83.064 165.687,82.991 164.846,83.899C164.509,84.262 164.105,84.56 163.948,84.56C163.498,84.56 162.863,85.634 163.031,86.112C163.153,86.458 163.901,87.495 164.004,87.463C164.018,87.458 164.981,87.186 166.144,86.858ZM100.713,89.747C111.51,87.008 118.918,79.232 118.918,70.639C118.918,68.679 117.539,67.6 117.22,69.31C115.49,78.572 113.37,81.667 106.249,85.325C102.291,87.358 97.336,88.534 95.163,87.955C92.454,87.234 86.49,78.934 84.952,73.746C84.456,72.072 84.537,71.86 85.669,71.86C86.626,71.86 87.697,71.228 87.697,70.664C87.697,70.223 86.738,69.651 86.375,69.875C86.236,69.961 85.646,69.904 85.064,69.747C81.329,68.741 81.709,62.398 85.535,61.884C89.324,61.376 91.831,65.53 89.765,68.891L89.232,69.758L89.566,70.161C90.428,71.199 92.019,69.645 92.349,67.443C92.74,64.838 91.474,62.033 89.24,60.554L88.133,59.822L84.345,59.822L83.226,60.597C80.4,62.555 79.626,66.614 81.546,69.406C82.009,70.079 82.388,71.224 82.709,72.918C83.496,77.077 86.87,83.2 90.641,87.312C93.537,90.471 95.75,91.006 100.713,89.747ZM108.183,68.692C108.555,68.551 109.368,67.966 109.99,67.393C110.725,66.716 111.489,66.284 112.175,66.16C115.672,65.525 116.03,62.195 112.835,60.02C109.099,57.477 104.764,62.138 108.014,65.203L108.972,66.106L108.359,66.602C106.34,68.237 103.246,65.817 103.246,62.601C103.246,57.743 110.249,55.664 114.191,59.351C115.476,60.554 115.721,61.076 116.19,63.631C116.635,66.048 118.126,65.687 118.122,63.163C118.108,55.262 105.412,52.493 101.945,59.635C99.654,64.354 103.792,70.362 108.183,68.692ZM88.776,67.912C90.288,66.4 89.005,63.129 86.9,63.129C85.931,63.129 84.785,64.522 84.796,65.688C84.82,68.26 87.135,69.553 88.776,67.912Z" style="fill:rgb(5,14,22);fill-rule:nonzero;"/>
        </g>
    </g>
</svg>
