<svg width="512" height="512" viewBox="0 0 512 512" fill="none" xmlns="http://www.w3.org/2000/svg">
<rect width="512" height="512" rx="100" fill="#174E18"/>
<path d="M126 386C117.062 386 109.411 382.818 103.047 376.453C96.6823 370.089 93.5 362.438 93.5 353.5V158.5C93.5 149.562 96.6823 141.911 103.047 135.547C109.411 129.182 117.062 126 126 126H386C394.938 126 402.589 129.182 408.953 135.547C415.318 141.911 418.5 149.562 418.5 158.5V353.5C418.5 362.438 415.318 370.089 408.953 376.453C402.589 382.818 394.938 386 386 386H126ZM126 353.5H386V191H126V353.5ZM182.875 337.25L160.125 314.5L201.969 272.25L159.719 230L182.875 207.25L247.875 272.25L182.875 337.25ZM256 337.25V304.75H353.5V337.25H256Z" fill="#3FFE4F"/>
</svg>
